<svg width="116" height="31" viewBox="0 0 116 31" fill="none" xmlns="http://www.w3.org/2000/svg">
<path d="M10.608 30.48C8.496 30.48 6.896 29.872 5.808 28.656C4.72 27.408 4.176 25.92 4.176 24.192V10.896H0.768L1.296 6H4.176V0.719999L10.128 0.0959988V6H15.408V10.896H10.128V21.744C10.128 23.024 10.192 23.92 10.32 24.432C10.48 24.912 10.784 25.232 11.232 25.392C11.712 25.52 12.56 25.584 13.776 25.584H15.408L14.88 30.48H10.608ZM30.852 30.48C28.068 30.48 25.684 29.92 23.7 28.8C21.748 27.648 20.276 26.128 19.284 24.24C18.324 22.32 17.844 20.192 17.844 17.856C17.844 15.616 18.308 13.568 19.236 11.712C20.164 9.856 21.508 8.384 23.268 7.296C25.028 6.176 27.124 5.616 29.556 5.616C31.796 5.616 33.684 6.08 35.22 7.008C36.788 7.936 37.956 9.184 38.724 10.752C39.524 12.32 39.924 14.08 39.924 16.032C39.924 16.992 39.796 18.08 39.54 19.296H24.036C24.356 21.408 25.188 22.992 26.532 24.048C27.876 25.072 29.492 25.584 31.38 25.584C33.972 25.584 36.372 24.928 38.58 23.616L38.868 28.656C37.844 29.2 36.644 29.648 35.268 30C33.924 30.32 32.452 30.48 30.852 30.48ZM33.876 15.264C33.876 14.016 33.524 12.912 32.82 11.952C32.116 10.992 31.028 10.512 29.556 10.512C28.084 10.512 26.9 10.944 26.004 11.808C25.108 12.672 24.5 13.824 24.18 15.264H33.876ZM49.1711 30.48C47.1871 30.48 45.5231 29.84 44.1791 28.56C42.8671 27.248 42.2111 25.488 42.2111 23.28C42.2111 21.2 42.9631 19.536 44.4671 18.288C45.9711 17.008 47.7471 16.112 49.7951 15.6C51.8431 15.056 53.8111 14.752 55.6991 14.688C55.6351 13.28 55.2671 12.272 54.5951 11.664C53.9551 11.056 52.8831 10.752 51.3791 10.752C50.3231 10.752 49.2831 10.896 48.2591 11.184C47.2671 11.472 46.1151 11.936 44.8031 12.576L44.2751 7.728C47.1871 6.32 50.0991 5.616 53.0111 5.616C55.8271 5.616 57.9711 6.384 59.4431 7.92C60.9471 9.456 61.6991 11.904 61.6991 15.264V21.744C61.6991 22.96 61.7471 23.84 61.8431 24.384C61.9711 24.896 62.1631 25.232 62.4191 25.392C62.7071 25.52 63.1711 25.584 63.8111 25.584H64.5791L64.0511 30.48H61.8911C60.5791 30.48 59.4751 30.24 58.5791 29.76C57.6831 29.248 56.9951 28.56 56.5151 27.696C55.7471 28.56 54.6911 29.248 53.3471 29.76C52.0351 30.24 50.6431 30.48 49.1711 30.48ZM51.6671 25.92C52.2751 25.92 52.9631 25.776 53.7311 25.488C54.4991 25.168 55.1711 24.736 55.7471 24.192V18.72C53.8271 18.816 52.1311 19.232 50.6591 19.968C49.1871 20.704 48.4511 21.728 48.4511 23.04C48.4511 24.032 48.7071 24.768 49.2191 25.248C49.7311 25.696 50.5471 25.92 51.6671 25.92ZM94.8214 5.616C98.0214 5.616 100.389 6.592 101.925 8.544C103.493 10.464 104.277 13.168 104.277 16.656V30H98.3254V17.088C98.3254 14.816 97.9734 13.152 97.2694 12.096C96.5654 11.04 95.4134 10.512 93.8134 10.512C92.2454 10.512 91.0614 11.056 90.2614 12.144C89.4614 13.2 89.0614 14.704 89.0614 16.656V30H83.1094V17.088C83.1094 14.816 82.7414 13.152 82.0054 12.096C81.2694 11.04 80.1014 10.512 78.5014 10.512C76.6134 10.512 75.0614 11.2 73.8454 12.576V30H67.8934V6H72.9814L73.1734 7.92C75.3494 6.384 77.7014 5.616 80.2294 5.616C83.3014 5.616 85.5894 6.72 87.0934 8.928C87.9254 7.872 89.0134 7.056 90.3574 6.48C91.7014 5.904 93.1894 5.616 94.8214 5.616Z" fill="white"/>
<path d="M109.036 23.472H115.276V30H109.036V23.472Z" fill="#3BB9FF"/>
</svg>
