<svg width="113" height="31" viewBox="0 0 113 31" fill="none" xmlns="http://www.w3.org/2000/svg">
<path d="M10.387 30.47C8.319 30.47 6.75233 29.8747 5.687 28.684C4.62167 27.462 4.089 26.005 4.089 24.313V11.294H0.752L1.269 6.5H4.089V1.33L9.917 0.718999V6.5H15.087V11.294H9.917V21.916C9.917 23.1693 9.97967 24.0467 10.105 24.548C10.2617 25.018 10.5593 25.3313 10.998 25.488C11.468 25.6133 12.2983 25.676 13.489 25.676H15.087L14.57 30.47H10.387ZM30.2093 30.47C27.4833 30.47 25.1489 29.9217 23.2063 28.825C21.2949 27.697 19.8536 26.2087 18.8823 24.36C17.9423 22.48 17.4723 20.3963 17.4723 18.109C17.4723 15.9157 17.9266 13.9103 18.8353 12.093C19.7439 10.2757 21.0599 8.83433 22.7833 7.769C24.5066 6.67233 26.5589 6.124 28.9403 6.124C31.1336 6.124 32.9823 6.57833 34.4863 7.487C36.0216 8.39567 37.1653 9.61767 37.9173 11.153C38.7006 12.6883 39.0923 14.4117 39.0923 16.323C39.0923 17.263 38.9669 18.3283 38.7163 19.519H23.5353C23.8486 21.587 24.6633 23.138 25.9793 24.172C27.2953 25.1747 28.8776 25.676 30.7263 25.676C33.2643 25.676 35.6143 25.0337 37.7763 23.749L38.0583 28.684C37.0556 29.2167 35.8806 29.6553 34.5333 30C33.2173 30.3133 31.7759 30.47 30.2093 30.47ZM33.1703 15.571C33.1703 14.349 32.8256 13.268 32.1363 12.328C31.4469 11.388 30.3816 10.918 28.9403 10.918C27.4989 10.918 26.3396 11.341 25.4623 12.187C24.5849 13.033 23.9896 14.161 23.6763 15.571H33.1703ZM48.1467 30.47C46.2041 30.47 44.5747 29.8433 43.2587 28.59C41.9741 27.3053 41.3317 25.582 41.3317 23.42C41.3317 21.3833 42.0681 19.754 43.5407 18.532C45.0134 17.2787 46.7524 16.4013 48.7577 15.9C50.7631 15.3673 52.6901 15.0697 54.5387 15.007C54.4761 13.6283 54.1157 12.6413 53.4577 12.046C52.8311 11.4507 51.7814 11.153 50.3087 11.153C49.2747 11.153 48.2564 11.294 47.2537 11.576C46.2824 11.858 45.1544 12.3123 43.8697 12.939L43.3527 8.192C46.2041 6.81333 49.0554 6.124 51.9067 6.124C54.6641 6.124 56.7634 6.876 58.2047 8.38C59.6774 9.884 60.4137 12.281 60.4137 15.571V21.916C60.4137 23.1067 60.4607 23.9683 60.5547 24.501C60.6801 25.0023 60.8681 25.3313 61.1187 25.488C61.4007 25.6133 61.8551 25.676 62.4817 25.676H63.2337L62.7167 30.47H60.6017C59.3171 30.47 58.2361 30.235 57.3587 29.765C56.4814 29.2637 55.8077 28.59 55.3377 27.744C54.5857 28.59 53.5517 29.2637 52.2357 29.765C50.9511 30.235 49.5881 30.47 48.1467 30.47ZM50.5907 26.005C51.1861 26.005 51.8597 25.864 52.6117 25.582C53.3637 25.2687 54.0217 24.8457 54.5857 24.313V18.955C52.7057 19.049 51.0451 19.4563 49.6037 20.177C48.1624 20.8977 47.4417 21.9003 47.4417 23.185C47.4417 24.1563 47.6924 24.877 48.1937 25.347C48.6951 25.7857 49.4941 26.005 50.5907 26.005ZM92.8459 6.124C95.9793 6.124 98.2979 7.07967 99.8019 8.991C101.337 10.871 102.105 13.5187 102.105 16.934V30H96.2769V17.357C96.2769 15.1323 95.9323 13.503 95.2429 12.469C94.5536 11.435 93.4256 10.918 91.8589 10.918C90.3236 10.918 89.1643 11.4507 88.3809 12.516C87.5976 13.55 87.2059 15.0227 87.2059 16.934V30H81.3779V17.357C81.3779 15.1323 81.0176 13.503 80.2969 12.469C79.5763 11.435 78.4326 10.918 76.8659 10.918C75.0173 10.918 73.4976 11.5917 72.3069 12.939V30H66.4789V6.5H71.4609L71.6489 8.38C73.7796 6.876 76.0826 6.124 78.5579 6.124C81.5659 6.124 83.8063 7.205 85.2789 9.367C86.0936 8.333 87.1589 7.534 88.4749 6.97C89.7909 6.406 91.2479 6.124 92.8459 6.124Z" fill="black" fill-opacity="0.89"/>
<path d="M106.765 23.608H112.875V30H106.765V23.608Z" fill="#3BB9FF"/>
</svg>
